<svg width="181" height="181" viewBox="0 0 181 181" fill="none" xmlns="http://www.w3.org/2000/svg">
<path fill-rule="evenodd" clip-rule="evenodd" d="M90.0003 11.926C92.4662 11.926 94.4653 9.92714 94.4653 7.46185C94.4653 4.99656 92.4662 3 90.0003 3C87.5358 3 85.5367 4.99886 85.5367 7.46408C85.5367 9.92937 87.5358 11.9282 90.0003 11.9282V11.926ZM120.06 12.9322C119.297 15.2757 116.779 16.56 114.435 15.7973C112.092 15.0344 110.808 12.5164 111.571 10.1728C112.334 7.8294 114.852 6.54505 117.195 7.30781C119.539 8.07064 120.823 10.5887 120.06 12.9322ZM136.482 27.028C138.476 28.4778 141.267 28.0343 142.715 26.0401C144.164 24.0458 143.721 21.2543 141.727 19.8069C139.733 18.3571 136.941 18.8006 135.494 20.7948C134.044 22.7891 134.487 25.5806 136.482 27.028ZM142.821 38.1799C145.455 40.8103 145.455 45.0792 142.821 47.7122C140.191 50.3452 135.922 50.3452 133.289 47.7122C130.656 45.0814 130.656 40.8129 133.289 38.1799C135.92 35.5468 140.188 35.5468 142.821 38.1799ZM169.071 91.0006C169.071 88.5354 171.07 86.537 173.536 86.537C176.001 86.537 178 88.5354 178 91.0006C178 93.4666 176.001 95.4649 173.536 95.4649C171.07 95.4649 169.071 93.4666 169.071 91.0006ZM170.828 69.4307C173.171 68.668 174.456 66.1522 173.693 63.8067C172.931 61.4631 170.415 60.1787 168.069 60.9413C165.725 61.7042 164.441 64.22 165.203 66.5655C165.966 68.9088 168.482 70.1935 170.828 69.4307ZM161.194 39.276C162.641 41.2705 162.201 44.0594 160.207 45.5093C158.212 46.9566 155.424 46.5155 153.974 44.5214C152.526 42.5269 152.967 39.738 154.961 38.2881C156.955 36.8409 159.744 37.282 161.194 39.276ZM68.4304 10.1728C69.1932 12.5187 67.9093 15.0344 65.5652 15.7973C63.2197 16.56 60.7039 15.2757 59.9412 12.9322C59.1784 10.5864 60.4608 8.07064 62.8063 7.30781C65.1519 6.54505 67.6676 7.8294 68.4304 10.1728ZM68.3821 40.8358C69.1448 43.1792 71.6606 44.4636 74.0061 43.7011C76.3501 42.9382 77.6341 40.4223 76.8713 38.0766C76.1085 35.7332 73.5928 34.4487 71.2465 35.2115C68.904 35.9743 67.6193 38.4902 68.3821 40.8358ZM73.9808 59.9286C73.2181 57.5826 74.5027 55.067 76.846 54.3041C79.1915 53.5416 81.7073 54.8256 82.4701 57.1695C83.2328 59.5151 81.9489 62.0313 79.6049 62.7934C77.2594 63.5561 74.7436 62.2722 73.9808 59.9286ZM64.0219 68.0591C62.028 66.6101 59.2364 67.0532 57.7889 69.0471C56.3393 71.0417 56.7823 73.8333 58.777 75.2808C60.7716 76.7304 63.5624 76.2874 65.0106 74.2927C66.4596 72.2989 66.0165 69.5073 64.0219 68.0591ZM59.8401 91.15C60.4058 93.5491 58.9204 95.9541 56.5207 96.5206C54.1209 97.0863 51.7166 95.6002 51.1501 93.2004C50.5844 90.8014 52.0705 88.3971 54.4695 87.8306C56.8693 87.2641 59.2736 88.7502 59.8401 91.15ZM60.1538 108.618C58.1599 110.068 57.7183 112.857 59.1658 114.851C60.6155 116.845 63.4048 117.286 65.3994 115.839C67.3933 114.389 67.8342 111.6 66.3867 109.606C64.937 107.612 62.1484 107.171 60.1538 108.618ZM84.7011 125.555C83.9383 127.899 81.4203 129.183 79.077 128.42C76.733 127.658 75.4491 125.14 76.2119 122.796C76.9746 120.452 79.4926 119.168 81.8359 119.931C84.1792 120.694 85.4638 123.212 84.7011 125.555ZM103.155 127.696C105.499 126.934 106.783 124.418 106.02 122.072C105.257 119.729 102.741 118.444 100.396 119.207C98.0523 119.97 96.7684 122.486 97.5312 124.831C98.2939 127.175 100.81 128.459 103.155 127.696ZM115.979 113.941C113.985 112.494 113.541 109.702 114.991 107.708C116.438 105.714 119.23 105.271 121.224 106.72C123.218 108.168 123.662 110.959 122.212 112.953C120.765 114.948 117.973 115.391 115.979 113.941ZM125.528 94.1788C127.927 93.6123 129.413 91.2088 128.847 88.809C128.281 86.4092 125.876 84.923 123.477 85.4895C121.077 86.056 119.591 88.4603 120.157 90.8601C120.724 93.2591 123.128 94.7453 125.528 94.1788ZM114.602 66.1618C116.596 64.7144 119.385 65.156 120.835 67.1499C122.283 69.1445 121.841 71.9338 119.847 73.3835C117.853 74.831 115.063 74.3901 113.614 72.3955C112.166 70.4016 112.608 67.6123 114.602 66.1618ZM98.1698 62.0693C100.513 62.8328 103.032 61.5482 103.795 59.2047C104.557 56.8613 103.273 54.3432 100.929 53.5803C98.5854 52.8173 96.0674 54.1017 95.3046 56.4451C94.5419 58.7886 95.8265 61.3067 98.1698 62.0693ZM43.0252 63.122C41.0313 61.6744 40.5876 58.8828 42.0372 56.8888C43.4846 54.8943 46.2762 54.451 48.2701 55.9005C50.2647 57.3483 50.7085 60.1398 49.2588 62.1339C47.8114 64.1286 45.0198 64.5716 43.0252 63.122ZM36.6325 95.9437C39.0322 95.3772 40.5182 92.9729 39.9518 90.5739C39.3855 88.1741 36.981 86.688 34.5818 87.2537C32.182 87.8202 30.696 90.2245 31.2623 92.6242C31.8287 95.024 34.2329 96.5102 36.6325 95.9437ZM42.739 126.075C41.2915 124.081 41.7324 121.292 43.7262 119.841C45.7209 118.395 48.5102 118.835 49.9599 120.829C51.4073 122.824 50.9665 125.613 48.9719 127.063C46.978 128.51 44.1886 128.07 42.739 126.075ZM78.005 144.292C78.7678 141.949 77.4831 139.431 75.1398 138.668C72.7958 137.904 70.2778 139.189 69.5151 141.532C68.7523 143.876 70.0362 146.394 72.3802 147.157C74.7235 147.92 77.2423 146.635 78.005 144.292ZM105.995 138.3C108.341 137.538 110.856 138.822 111.619 141.165C112.382 143.511 111.097 146.027 108.754 146.789C106.408 147.553 103.893 146.268 103.13 143.925C102.367 141.578 103.651 139.063 105.995 138.3ZM137.964 125.112C139.414 123.118 138.97 120.326 136.976 118.878C134.981 117.429 132.19 117.873 130.742 119.867C129.293 121.861 129.736 124.653 131.73 126.099C133.725 127.55 136.517 127.106 137.964 125.112ZM148.731 89.3881C149.298 91.7871 147.811 94.1921 145.412 94.7579C143.012 95.3244 140.608 93.8383 140.041 91.4385C139.475 89.0394 140.961 86.6352 143.361 86.0687C145.76 85.5022 148.165 86.9883 148.731 89.3881ZM136.274 62.1592C138.269 60.7093 138.71 57.9204 137.263 55.9259C135.813 53.9318 133.024 53.4907 131.029 54.9381C129.036 56.388 128.594 59.1769 130.041 61.1713C131.491 63.1651 134.28 63.6067 136.274 62.1592ZM104.862 43.3333C102.519 42.5703 101.234 40.0522 101.997 37.7088C102.76 35.3652 105.278 34.081 107.621 34.8437C109.964 35.6065 111.249 38.1246 110.486 40.468C109.723 42.8114 107.205 44.0958 104.862 43.3333ZM43.5211 27.028C45.5157 25.5784 45.9565 22.7891 44.5098 20.7948C43.0594 18.8006 40.2705 18.3595 38.2759 19.8069C36.2818 21.2566 35.8408 24.0458 37.2883 26.0401C38.738 28.0344 41.5272 28.4755 43.5211 27.028ZM26.029 44.5213C24.5816 46.5158 21.7901 46.9591 19.7958 45.5092C17.8015 44.0619 17.3581 41.2704 18.8079 39.2764C20.2553 37.2818 23.0469 36.8386 25.041 38.288C27.0354 39.7357 27.4788 42.5272 26.029 44.5213ZM11.9304 60.9413C9.58699 60.1787 7.06892 61.4631 6.30609 63.8067C5.54333 66.1499 6.82768 68.668 9.17119 69.4307C11.5146 70.1935 14.0328 68.9088 14.7955 66.5655C15.5583 64.2222 14.2739 61.7042 11.9304 60.9413ZM7.4906 86.6515C9.89009 87.218 11.3761 89.6223 10.8099 92.0221C10.2435 94.4211 7.83919 95.9072 5.43962 95.3407C3.04013 94.775 1.55409 92.37 2.12036 89.9709C2.6867 87.5711 5.09103 86.085 7.4906 86.6515ZM9.1732 112.57C6.82968 113.333 5.54541 115.848 6.30817 118.195C7.07093 120.538 9.58677 121.822 11.9325 121.059C14.276 120.297 15.5603 117.78 14.7975 115.435C14.0347 113.092 11.5189 111.807 9.1732 112.57ZM18.8069 142.725C17.3594 140.731 17.8006 137.942 19.7948 136.492C21.7891 135.044 24.5783 135.485 26.028 137.479C27.4755 139.474 27.0343 142.263 25.0401 143.713C23.0458 145.16 20.2566 144.719 18.8069 142.725ZM43.5225 154.973C41.5279 153.523 38.7367 153.967 37.2893 155.961C35.8396 157.955 36.2827 160.747 38.2769 162.194C40.2714 163.644 43.0631 163.2 44.5106 161.206C45.9602 159.212 45.5164 156.42 43.5225 154.973ZM59.9412 169.068C60.7039 166.725 63.2219 165.44 65.5652 166.204C67.9085 166.966 69.1932 169.485 68.4304 171.828C67.6676 174.171 65.1496 175.456 62.8063 174.693C60.4623 173.93 59.1784 171.412 59.9412 169.068ZM90.2478 178.993C92.7093 178.856 94.5939 176.751 94.4579 174.289C94.3218 171.827 92.2157 169.942 89.7534 170.079C87.2919 170.215 85.4073 172.321 85.5434 174.783C85.6802 177.244 87.7856 179.13 90.2478 178.993ZM111.571 171.828C110.808 169.482 112.092 166.966 114.435 166.204C116.782 165.44 119.297 166.725 120.06 169.068C120.823 171.414 119.539 173.93 117.195 174.693C114.849 175.456 112.334 174.171 111.571 171.828ZM136.481 154.974C134.486 156.423 134.045 159.213 135.492 161.206C136.942 163.201 139.731 163.642 141.726 162.194C143.72 160.745 144.161 157.955 142.714 155.962C141.264 153.967 138.475 153.526 136.481 154.974ZM153.972 137.48C155.42 135.485 158.211 135.042 160.206 136.492C162.2 137.939 162.643 140.731 161.193 142.725C159.746 144.719 156.954 145.162 154.96 143.714C152.966 142.265 152.523 139.474 153.972 137.48ZM170.828 112.57C168.484 111.807 165.966 113.092 165.203 115.435C164.441 117.779 165.725 120.297 168.069 121.059C170.413 121.822 172.931 120.538 173.693 118.195C174.456 115.851 173.171 113.333 170.828 112.57ZM117.792 36.4546C114.474 34.7658 113.155 30.706 114.846 27.3884C116.535 24.0707 120.595 22.7519 123.913 24.443C127.23 26.1316 128.546 30.1914 126.858 33.509C125.169 36.8267 121.109 38.1456 117.792 36.4546ZM99.5756 30.5364C103.252 31.1177 106.704 28.611 107.289 24.9327C107.87 21.2566 105.363 17.8034 101.685 17.2198C98.0085 16.6385 94.5552 19.1452 93.9717 22.8235C93.3881 26.5018 95.8971 29.9528 99.5756 30.5364ZM86.0289 22.8235C86.6102 26.5018 84.1026 29.9551 80.4249 30.5364C76.7464 31.1177 73.2932 28.611 72.7118 24.9327C72.1304 21.2543 74.6373 17.8011 78.3158 17.2198C81.9935 16.6385 85.4475 19.1452 86.0289 22.8235ZM62.2071 36.4546C65.5243 34.7635 66.8432 30.7038 65.1526 27.3884C63.4613 24.0707 59.4014 22.7519 56.0857 24.443C52.7686 26.1339 51.4497 30.1937 53.141 33.509C54.8316 36.8267 58.8914 38.1456 62.2071 36.4546ZM46.7133 38.1799C49.3466 40.8103 49.3466 45.0792 46.7133 47.7122C44.0831 50.3452 39.8139 50.3452 37.1807 47.7122C34.5479 45.0814 34.5479 40.8129 37.1807 38.1799C39.8118 35.5468 44.0809 35.5468 46.7133 38.1799ZM23.4422 57.0865C21.7513 60.4042 23.07 64.4638 26.3877 66.1529C29.7053 67.8435 33.765 66.5246 35.4537 63.2067C37.1449 59.8893 35.8258 55.8296 32.5083 54.1412C29.1906 52.4502 25.1309 53.7687 23.4422 57.0865ZM29.5373 81.4245C28.9537 85.103 25.5028 87.6091 21.8245 87.0277C18.1462 86.4441 15.6395 82.9931 16.2208 79.3146C16.8044 75.6369 20.2553 73.13 23.9336 73.7114C27.612 74.295 30.1186 77.7482 29.5373 81.4245ZM23.9336 108.29C27.612 107.708 30.1186 104.255 29.5373 100.577C28.956 96.9005 25.5028 94.3914 21.8245 94.9727C18.1462 95.5541 15.6395 99.0073 16.2208 102.686C16.8044 106.364 20.2553 108.871 23.9336 108.29ZM26.3897 115.848C29.705 114.158 33.7647 115.477 35.4556 118.794C37.1468 122.109 35.8255 126.169 32.5103 127.861C29.1949 129.551 25.1352 128.232 23.4442 124.914C21.7533 121.599 23.0721 117.54 26.3897 115.848ZM37.1807 134.288C34.5479 136.922 34.5479 141.19 37.1807 143.821C39.8139 146.454 44.0831 146.454 46.7133 143.821C49.3466 141.188 49.3466 136.919 46.7133 134.288C44.0809 131.655 39.8118 131.655 37.1807 134.288ZM65.7592 150.183C66.5123 153.829 64.1668 157.396 60.5211 158.148C56.8753 158.901 53.309 156.556 52.5559 152.911C51.8029 149.264 54.1484 145.698 57.7941 144.945C61.4399 144.192 65.0062 146.537 65.7592 150.183ZM80.4249 151.465C76.7486 150.884 73.2954 153.39 72.7118 157.069C72.1304 160.747 74.6373 164.198 78.3158 164.782C81.9935 165.365 85.4445 162.856 86.0289 159.178C86.6102 155.499 84.1026 152.048 80.4249 151.465ZM93.9739 159.178C93.3925 155.499 95.8986 152.046 99.5771 151.465C103.256 150.884 106.707 153.39 107.29 157.069C107.872 160.747 105.365 164.2 101.687 164.782C98.0085 165.363 94.5553 162.854 93.9739 159.178ZM122.418 158.115C126.039 157.247 128.271 153.609 127.402 149.988C126.535 146.368 122.896 144.136 119.276 145.003C115.655 145.872 113.424 149.51 114.292 153.131C115.159 156.751 118.798 158.982 122.418 158.115ZM133.289 143.821C130.656 141.19 130.656 136.922 133.289 134.288C135.92 131.655 140.188 131.655 142.821 134.288C145.455 136.919 145.455 141.188 142.821 143.821C140.191 146.454 135.922 146.454 133.289 143.821ZM156.56 124.914C158.252 121.597 156.933 117.537 153.616 115.848C150.298 114.158 146.238 115.477 144.549 118.794C142.858 122.112 144.177 126.172 147.495 127.861C150.812 129.549 154.872 128.232 156.56 124.914ZM150.464 100.577C151.048 96.8982 154.499 94.3921 158.177 94.9727C161.856 95.5563 164.363 99.0073 163.781 102.686C163.198 106.364 159.744 108.87 156.068 108.29C152.39 107.706 149.883 104.255 150.464 100.577ZM156.068 73.7114C152.39 74.2927 149.883 77.746 150.464 81.4245C151.045 85.1 154.499 87.6091 158.177 87.0277C161.856 86.4463 164.363 82.9931 163.781 79.3146C163.2 75.6369 159.747 73.13 156.068 73.7114ZM153.613 66.1529C150.298 67.8435 146.238 66.5246 144.546 63.2067C142.856 59.892 144.175 55.8322 147.492 54.1412C150.808 52.4502 154.867 53.7687 156.559 57.0865C158.249 60.402 156.93 64.4616 153.613 66.1529ZM89.9995 50.1065C94.1731 50.1065 97.5565 46.7232 97.5565 42.5499C97.5565 38.3762 94.1731 34.9932 89.9995 34.9932C85.8266 34.9932 82.4433 38.3762 82.4433 42.5499C82.4433 46.7232 85.8266 50.1065 89.9995 50.1065ZM66.3733 46.006C69.5716 48.6862 69.9923 53.4525 67.3123 56.6515C64.6315 59.85 59.8653 60.2706 56.6664 57.59C53.4681 54.9099 53.0474 50.1435 55.7274 46.945C58.4082 43.746 63.1743 43.3254 66.3733 46.006ZM51.1063 78.3645C52.3954 74.3961 50.2238 70.1318 46.2539 68.8434C42.2862 67.5543 38.022 69.7259 36.7328 73.6958C35.444 77.6635 37.6152 81.9278 41.5852 83.2169C45.5528 84.5052 49.8179 82.3344 51.1063 78.3645ZM36.7326 108.308C35.4438 104.34 37.6172 100.076 41.5852 98.7873C45.5528 97.4982 49.8172 99.6712 51.1063 103.64C52.3954 107.607 50.2216 111.872 46.2539 113.16C42.2855 114.449 38.0218 112.275 36.7326 108.308ZM89.9995 147.008C94.1731 147.008 97.5565 143.624 97.5565 139.451C97.5565 135.278 94.1731 131.894 89.9995 131.894C85.8266 131.894 82.4433 135.278 82.4433 139.451C82.4433 143.624 85.8266 147.008 89.9995 147.008ZM124.595 125.757C127.046 129.135 126.297 133.859 122.922 136.313C119.545 138.764 114.821 138.014 112.367 134.64C109.916 131.263 110.665 126.539 114.04 124.085C117.417 121.634 122.141 122.382 124.595 125.757ZM133.747 113.158C137.714 114.447 141.979 112.275 143.268 108.305C144.556 104.338 142.385 100.073 138.415 98.7843C134.447 97.496 130.183 99.6668 128.894 103.637C127.605 107.605 129.776 111.869 133.747 113.158ZM143.269 73.6928C144.558 77.6605 142.385 81.9248 138.417 83.2139C134.449 84.503 130.185 82.3292 128.896 78.3615C127.607 74.3939 129.781 70.1295 133.748 68.8404C137.716 67.5513 141.981 69.7251 143.269 73.6928ZM119.407 59.3028C123.55 58.7892 126.491 55.0151 125.976 50.8737C125.463 46.7318 121.689 43.791 117.548 44.3045C113.406 44.8182 110.465 48.5923 110.978 52.7337C111.492 56.8755 115.266 59.8164 119.407 59.3028ZM55.41 125.758C57.864 122.381 62.59 121.632 65.9652 124.085C69.3418 126.54 70.0912 131.266 67.6372 134.641C65.1838 138.018 60.4579 138.767 57.0827 136.313C53.7053 133.859 52.9559 129.133 55.41 125.758Z" fill="url(#paint0_radial_4162_96)"/>
<defs>
<radialGradient id="paint0_radial_4162_96" cx="0" cy="0" r="1" gradientUnits="userSpaceOnUse" gradientTransform="translate(90.4433 89.1004) scale(88.3335 88.3336)">
<stop stop-color="#E599F7"/>
<stop offset="1" stop-color="#136EFF"/>
</radialGradient>
</defs>
</svg>
